<svg width="41" height="40" viewBox="0 0 41 40" fill="none" xmlns="http://www.w3.org/2000/svg">
<path d="M20.5001 14.1666V25.8333M15.5001 22.9166L25.5001 17.0833M15.5001 17.0833L25.5001 22.9166M16.6884 6.06664C17.6567 5.24164 18.1417 4.82831 18.6484 4.58664C19.2266 4.31038 19.8593 4.16699 20.5001 4.16699C21.1409 4.16699 21.7736 4.31038 22.3517 4.58664C22.8584 4.82831 23.3434 5.24164 24.3117 6.06664C25.3101 6.91664 26.3234 7.34664 27.6567 7.45164C28.9251 7.55331 29.5601 7.60497 30.0901 7.79164C31.3134 8.22497 32.2767 9.18664 32.7084 10.4116C32.8951 10.94 32.9467 11.575 33.0484 12.845C33.1534 14.1783 33.5817 15.19 34.4317 16.1883C35.2584 17.1566 35.6717 17.6416 35.9134 18.1483C36.4734 19.32 36.4734 20.6816 35.9134 21.8516C35.6717 22.3583 35.2584 22.8433 34.4334 23.8116C33.6082 24.7388 33.1201 25.9175 33.0484 27.1566C32.9467 28.425 32.8951 29.06 32.7084 29.59C32.4947 30.1942 32.1485 30.743 31.6952 31.1961C31.2418 31.6492 30.6928 31.995 30.0884 32.2083C29.5601 32.395 28.9251 32.4466 27.6551 32.5483C26.3217 32.6533 25.3101 33.0816 24.3117 33.9316C23.3434 34.7583 22.8584 35.1716 22.3517 35.4133C21.7736 35.6896 21.1409 35.833 20.5001 35.833C19.8593 35.833 19.2266 35.6896 18.6484 35.4133C18.1417 35.1716 17.6567 34.7583 16.6884 33.9333C15.7612 33.1081 14.5826 32.62 13.3434 32.5483C12.0751 32.4466 11.4401 32.395 10.9101 32.2083C10.3058 31.9946 9.75702 31.6484 9.30395 31.1951C8.85089 30.7417 8.50503 30.1927 8.29174 29.5883C8.10507 29.06 8.05341 28.425 7.95174 27.155C7.88024 25.9166 7.39282 24.7385 6.56841 23.8116C5.74174 22.8433 5.32841 22.3583 5.08507 21.8516C4.80907 21.2733 4.66597 20.6406 4.66626 19.9998C4.66655 19.359 4.81022 18.7264 5.08674 18.1483C5.32841 17.6416 5.74174 17.1566 6.56674 16.1883C7.43341 15.17 7.84841 14.15 7.95174 12.8433C8.05341 11.575 8.10507 10.94 8.29174 10.41C8.50542 9.8057 8.85162 9.25692 9.30498 8.80385C9.75833 8.35079 10.3073 8.00493 10.9117 7.79164C11.4401 7.60497 12.0751 7.55331 13.3451 7.45164C14.5835 7.38014 15.7615 6.89106 16.6884 6.06664Z" stroke="#FCFCFD" stroke-width="2" stroke-linecap="round" stroke-linejoin="round"/>
</svg>
